<?xml version="1.0" standalone="no"?>
<svg xmlns="http://www.w3.org/2000/svg" viewBox="0 0 140.248 52" width="140.248" height="52"><rect fill="none" stroke="#4f4343" stroke-width="3" width="137.248" height="49" x="1.5" y="1.5"></rect><g fill="#ffd167" color="#ffd167" transform="translate(11.999999999999993, 12) scale(1.1666667)"><svg width="24.0" height="24.0" x="0.0" y="0.0" viewBox="0 0 24 24"><g><path d="M4,17.5c-0.276,0-0.5-0.224-0.5-0.5V7c0-0.276,0.224-0.5,0.5-0.5S4.5,6.724,4.5,7v10C4.5,17.276,4.276,17.5,4,17.5z"></path><path d="M6,15.5c-0.276,0-0.5-0.224-0.5-0.5V7c0-0.276,0.224-0.5,0.5-0.5S6.5,6.724,6.5,7v8C6.5,15.276,6.276,15.5,6,15.5z"></path><path d="M8,15.5c-0.276,0-0.5-0.224-0.5-0.5V7c0-0.276,0.224-0.5,0.5-0.5S8.5,6.724,8.5,7v8C8.5,15.276,8.276,15.5,8,15.5z"></path><path d="M10,15.5c-0.276,0-0.5-0.224-0.5-0.5V7c0-0.276,0.224-0.5,0.5-0.5s0.5,0.224,0.5,0.5v8C10.5,15.276,10.276,15.5,10,15.5z"></path><path d="M12,17.5c-0.276,0-0.5-0.224-0.5-0.5V7c0-0.276,0.224-0.5,0.5-0.5s0.5,0.224,0.5,0.5v10C12.5,17.276,12.276,17.5,12,17.5z"></path><path d="M14,15.5c-0.276,0-0.5-0.224-0.5-0.5V7c0-0.276,0.224-0.5,0.5-0.5s0.5,0.224,0.5,0.5v8C14.5,15.276,14.276,15.5,14,15.5z"></path><path d="M16,15.5c-0.276,0-0.5-0.224-0.5-0.5V7c0-0.276,0.224-0.5,0.5-0.5s0.5,0.224,0.5,0.5v8C16.5,15.276,16.276,15.5,16,15.5z"></path><path d="M18,15.5c-0.276,0-0.5-0.224-0.5-0.5V7c0-0.276,0.224-0.5,0.5-0.5s0.5,0.224,0.5,0.5v8C18.5,15.276,18.276,15.5,18,15.5z"></path><path d="M20,17.5c-0.276,0-0.5-0.224-0.5-0.5V7c0-0.276,0.224-0.5,0.5-0.5s0.5,0.224,0.5,0.5v10C20.5,17.276,20.276,17.5,20,17.5z"></path><path d="M6,17.5c-0.13,0-0.26-0.05-0.35-0.15C5.55,17.26,5.5,17.13,5.5,17c0-0.13,0.05-0.26,0.15-0.35c0.18-0.19,0.52-0.19,0.7,0   C6.45,16.74,6.5,16.87,6.5,17c0,0.13-0.05,0.26-0.15,0.35C6.26,17.45,6.13,17.5,6,17.5z"></path><path d="M8,17.5c-0.13,0-0.25-0.05-0.35-0.14C7.55,17.26,7.5,17.13,7.5,17c0-0.13,0.05-0.26,0.14-0.35c0.21-0.2,0.53-0.19,0.71,0   C8.45,16.74,8.5,16.87,8.5,17c0,0.13-0.05,0.26-0.15,0.35C8.26,17.45,8.13,17.5,8,17.5z"></path><path d="M10,17.5c-0.13,0-0.26-0.05-0.35-0.15C9.55,17.26,9.5,17.13,9.5,17c0-0.13,0.05-0.26,0.14-0.35c0.19-0.19,0.53-0.19,0.71,0   c0.1,0.09,0.15,0.22,0.15,0.35c0,0.13-0.05,0.26-0.15,0.35C10.26,17.45,10.13,17.5,10,17.5z"></path><path d="M14,17.5c-0.13,0-0.25-0.05-0.35-0.14c-0.1-0.1-0.15-0.23-0.15-0.36c0-0.13,0.05-0.26,0.14-0.35c0.21-0.2,0.53-0.19,0.71,0   c0.1,0.09,0.15,0.22,0.15,0.35c0,0.13-0.05,0.26-0.15,0.35C14.26,17.45,14.13,17.5,14,17.5z"></path><path d="M16,17.5c-0.13,0-0.26-0.05-0.35-0.15c-0.1-0.09-0.15-0.22-0.15-0.35c0-0.13,0.05-0.26,0.15-0.35   c0.18-0.19,0.52-0.19,0.7,0c0.1,0.09,0.15,0.22,0.15,0.35c0,0.13-0.05,0.26-0.15,0.35C16.26,17.45,16.13,17.5,16,17.5z"></path><path d="M18,17.5c-0.13,0-0.25-0.05-0.35-0.14c-0.1-0.11-0.15-0.23-0.15-0.36c0-0.13,0.05-0.26,0.14-0.35   c0.21-0.2,0.53-0.19,0.71,0c0.1,0.09,0.15,0.22,0.15,0.35c0,0.13-0.05,0.26-0.15,0.35C18.26,17.45,18.13,17.5,18,17.5z"></path><path d="M1,7.5C0.724,7.5,0.5,7.276,0.5,7V4c0-0.276,0.224-0.5,0.5-0.5h3c0.276,0,0.5,0.224,0.5,0.5S4.276,4.5,4,4.5H1.5V7   C1.5,7.276,1.276,7.5,1,7.5z"></path><path d="M4,20.5H1c-0.276,0-0.5-0.224-0.5-0.5v-3c0-0.276,0.224-0.5,0.5-0.5s0.5,0.224,0.5,0.5v2.5H4c0.276,0,0.5,0.224,0.5,0.5   S4.276,20.5,4,20.5z"></path><path d="M23,7.5c-0.276,0-0.5-0.224-0.5-0.5V4.5H20c-0.276,0-0.5-0.224-0.5-0.5s0.224-0.5,0.5-0.5h3c0.276,0,0.5,0.224,0.5,0.5v3   C23.5,7.276,23.276,7.5,23,7.5z"></path><path d="M23,20.5h-3c-0.276,0-0.5-0.224-0.5-0.5s0.224-0.5,0.5-0.5h2.5V17c0-0.276,0.224-0.5,0.5-0.5s0.5,0.224,0.5,0.5v3   C23.5,20.276,23.276,20.5,23,20.5z"></path></g></svg></g><path fill="#ffd167" fill-rule="nonzero" d="M2.21 19.46L0 19.46L0.36 0.02L3.02 0.02L6.46 15.79L9.91 0.02L12.55 0.02L12.91 19.46L10.73 19.46L10.51 5.35L7.22 19.46L5.69 19.46L2.42 5.35L2.21 19.46ZM15.77 22.94L15.46 22.94L15.46 20.98Q16.39 20.98 16.94 20.89Q17.50 20.81 17.74 20.58Q17.98 20.35 17.98 19.94L17.98 19.94Q17.98 19.73 17.81 18.98Q17.64 18.24 17.45 17.40L17.45 17.40L14.66 5.59L17.26 5.59L19.13 15.96L20.93 5.59L23.52 5.59L20.21 20.23Q19.99 21.24 19.42 21.83Q18.84 22.42 17.94 22.68Q17.04 22.94 15.77 22.94L15.77 22.94ZM30.14 19.46L27.43 19.46L27.43 2.04L24.14 2.04L24.14 0.02L33.34 0.02L33.34 2.04L30.14 2.04L30.14 19.46ZM37.73 19.46L35.16 19.46L35.16 5.59L37.73 5.59L37.73 19.46ZM37.73 3.53L35.16 3.53L35.16 0.84L37.73 0.84L37.73 3.53ZM44.28 19.66L44.28 19.66Q42.58 19.66 41.70 18.97Q40.82 18.29 40.52 17.04Q40.22 15.79 40.22 14.14L40.22 14.14L40.22 10.94Q40.22 9.19 40.54 7.96Q40.85 6.72 41.72 6.06Q42.60 5.40 44.28 5.40L44.28 5.40Q45.79 5.40 46.62 5.89Q47.45 6.38 47.76 7.36Q48.07 8.33 48.07 9.77L48.07 9.77L48.07 10.58L45.74 10.58L45.74 9.74Q45.74 8.83 45.62 8.30Q45.50 7.78 45.19 7.54Q44.88 7.30 44.30 7.30L44.30 7.30Q43.68 7.30 43.34 7.58Q43.01 7.87 42.90 8.56Q42.79 9.24 42.79 10.42L42.79 10.42L42.79 14.78Q42.79 16.56 43.13 17.16Q43.46 17.76 44.33 17.76L44.33 17.76Q44.98 17.76 45.28 17.46Q45.58 17.16 45.66 16.61Q45.74 16.06 45.74 15.36L45.74 15.36L45.74 14.23L48.07 14.23L48.07 15.19Q48.07 16.58 47.75 17.59Q47.42 18.60 46.60 19.13Q45.77 19.66 44.28 19.66ZM52.97 19.44L50.40 19.44L50.40 0L52.97 0L52.97 11.59L56.71 5.59L59.40 5.59L56.14 11.02L59.30 19.46L56.74 19.46L54.14 12.36L52.97 14.14L52.97 19.44ZM64.49 19.66L64.49 19.66Q62.86 19.66 61.97 19.02Q61.08 18.38 60.73 17.15Q60.38 15.91 60.38 14.11L60.38 14.11L60.38 10.94Q60.38 9.10 60.74 7.87Q61.10 6.65 62.00 6.02Q62.90 5.40 64.49 5.40L64.49 5.40Q66.24 5.40 67.07 6.12Q67.90 6.84 68.16 8.20Q68.42 9.55 68.42 11.45L68.42 11.45L68.42 12.58L62.95 12.58L62.95 15.36Q62.95 16.20 63.11 16.73Q63.26 17.26 63.61 17.51Q63.96 17.76 64.51 17.76L64.51 17.76Q65.09 17.76 65.39 17.48Q65.69 17.21 65.80 16.69Q65.90 16.18 65.90 15.48L65.90 15.48L65.90 14.64L68.40 14.64L68.40 15.17Q68.40 17.26 67.51 18.46Q66.62 19.66 64.49 19.66ZM62.95 10.44L62.95 11.18L65.90 11.18L65.90 9.94Q65.90 9.07 65.81 8.48Q65.71 7.90 65.41 7.60Q65.11 7.30 64.46 7.30L64.46 7.30Q63.84 7.30 63.52 7.58Q63.19 7.87 63.07 8.56Q62.95 9.24 62.95 10.44L62.95 10.44ZM74.45 19.66L74.45 19.66Q73.37 19.66 72.71 19.25Q72.05 18.84 71.75 18.10Q71.45 17.35 71.45 16.34L71.45 16.34L71.45 7.30L69.98 7.30L69.98 5.59L71.45 5.59L71.45 1.54L74.02 1.54L74.02 5.59L76.25 5.59L76.25 7.30L74.02 7.30L74.02 16.18Q74.02 16.99 74.28 17.34Q74.54 17.69 75.29 17.69L75.29 17.69Q75.48 17.69 75.73 17.66Q75.98 17.64 76.22 17.62L76.22 17.62L76.22 19.51Q75.74 19.58 75.34 19.62Q74.93 19.66 74.45 19.66Z" transform="translate(51.99999999999999 16.268)"></path></svg>