<?xml version="1.0" encoding="UTF-8"?><svg xmlns="http://www.w3.org/2000/svg" xmlns:xlink="http://www.w3.org/1999/xlink" width="375" zoomAndPan="magnify" viewBox="0 0 375 374.999991" height="374.999991" preserveAspectRatio="xMidYMid meet" version="1.0"><defs><clipPath id="clip-0"><path d="M 62.207031 98.855469 L 312.707031 98.855469 L 312.707031 275.855469 L 62.207031 275.855469 Z M 62.207031 98.855469 " clip-rule="nonzero"/></clipPath></defs><path fill="rgb(100%, 100%, 100%)" d="M 132.09375 227.550781 C 130.195312 228.152344 129.152344 230.179688 129.757812 232.074219 L 132.957031 242.097656 C 133.445312 243.628906 134.863281 244.601562 136.386719 244.601562 C 136.75 244.601562 137.121094 244.546875 137.484375 244.429688 C 139.378906 243.828125 140.425781 241.800781 139.820312 239.910156 L 136.617188 229.886719 C 136.015625 227.992188 133.992188 226.933594 132.09375 227.550781 " fill-opacity="1" fill-rule="nonzero"/><g clip-path="url(#clip-0)"><path fill="rgb(100%, 100%, 100%)" d="M 303.054688 185.726562 L 303.054688 208.160156 L 163.367188 208.160156 L 163.367188 205.648438 C 163.367188 203.664062 161.753906 202.050781 159.765625 202.050781 C 157.777344 202.050781 156.164062 203.664062 156.164062 205.648438 L 156.164062 208.160156 L 121.632812 208.160156 L 121.632812 187.039062 C 133.09375 182.253906 140.828125 170.90625 140.828125 158.289062 C 140.828125 153.289062 139.597656 148.5 137.417969 144.230469 C 137.300781 143.941406 137.160156 143.671875 136.996094 143.421875 C 133.632812 137.285156 128.265625 132.3125 121.632812 129.539062 L 121.632812 108.421875 L 156.164062 108.421875 L 156.164062 110.929688 C 156.164062 112.917969 157.777344 114.527344 159.765625 114.527344 C 161.753906 114.527344 163.367188 112.917969 163.367188 110.929688 L 163.367188 108.421875 L 303.054688 108.421875 L 303.054688 130.855469 C 292.992188 136.25 286.648438 146.695312 286.648438 158.289062 C 286.648438 169.886719 292.992188 180.332031 303.054688 185.726562 Z M 143.785156 252.332031 L 143.019531 249.9375 C 142.414062 248.046875 140.390625 246.992188 138.492188 247.605469 C 136.597656 248.207031 135.554688 250.230469 136.160156 252.125 L 136.921875 254.515625 L 104.019531 264.992188 L 97.597656 244.867188 C 107.066406 236.828125 110.980469 223.675781 107.144531 211.652344 C 103.308594 199.632812 92.492188 191.167969 80.113281 190.082031 L 73.691406 169.960938 L 106.59375 159.488281 L 107.355469 161.878906 C 107.84375 163.40625 109.261719 164.382812 110.789062 164.382812 C 111.152344 164.382812 111.515625 164.328125 111.882812 164.214844 C 113.773438 163.613281 114.824219 161.589844 114.21875 159.695312 L 113.460938 157.300781 L 130.242188 151.957031 C 130.871094 153.976562 131.222656 156.101562 131.222656 158.289062 C 131.222656 166.304688 126.703125 173.5625 119.828125 177.265625 L 117.421875 169.722656 C 116.816406 167.828125 114.792969 166.785156 112.898438 167.386719 C 111 167.992188 109.953125 170.015625 110.554688 171.90625 L 113.289062 180.472656 C 112.515625 181.332031 112.027344 182.429688 112.027344 183.644531 L 112.027344 212.957031 C 112.027344 215.605469 114.175781 217.753906 116.828125 217.753906 L 125.1875 217.753906 L 126.554688 222.042969 C 127.046875 223.574219 128.460938 224.550781 129.988281 224.550781 C 130.351562 224.550781 130.71875 224.496094 131.082031 224.378906 C 132.980469 223.773438 134.027344 221.75 133.421875 219.859375 L 132.75 217.753906 L 252.40625 217.753906 Z M 309.679688 138.324219 C 311.484375 137.589844 312.664062 135.832031 312.664062 133.886719 L 312.664062 103.621094 C 312.664062 100.972656 310.511719 98.824219 307.859375 98.824219 L 116.828125 98.824219 C 114.175781 98.824219 112.027344 100.972656 112.027344 103.621094 L 112.027344 132.933594 C 112.027344 135.082031 113.453125 136.964844 115.519531 137.550781 C 119.328125 138.628906 122.65625 140.726562 125.261719 143.472656 L 66.199219 162.277344 C 63.671875 163.082031 62.273438 165.78125 63.082031 168.304688 L 71.992188 196.230469 C 72.644531 198.273438 74.507812 199.695312 76.722656 199.570312 C 86.253906 199.28125 95.074219 205.421875 97.992188 214.566406 C 100.910156 223.707031 97.351562 233.789062 89.335938 239.089844 C 87.542969 240.273438 86.757812 242.5 87.410156 244.546875 L 96.324219 272.472656 C 96.710938 273.683594 97.566406 274.695312 98.699219 275.277344 C 99.386719 275.632812 100.140625 275.816406 100.902344 275.816406 C 101.390625 275.816406 101.882812 275.738281 102.359375 275.585938 L 284.039062 217.753906 L 307.859375 217.753906 C 310.511719 217.753906 312.664062 215.605469 312.664062 212.957031 L 312.664062 182.691406 C 312.664062 180.746094 311.484375 178.992188 309.679688 178.253906 C 301.523438 174.917969 296.253906 167.082031 296.253906 158.289062 C 296.253906 149.496094 301.523438 141.664062 309.679688 138.324219 " fill-opacity="1" fill-rule="nonzero"/></g><path fill="rgb(100%, 100%, 100%)" d="M 159.765625 138.90625 C 157.777344 138.90625 156.164062 140.515625 156.164062 142.503906 L 156.164062 153.027344 C 156.164062 155.015625 157.777344 156.625 159.765625 156.625 C 161.753906 156.625 163.367188 155.015625 163.367188 153.027344 L 163.367188 142.503906 C 163.367188 140.515625 161.753906 138.90625 159.765625 138.90625 " fill-opacity="1" fill-rule="nonzero"/><path fill="rgb(100%, 100%, 100%)" d="M 159.765625 181.003906 C 157.777344 181.003906 156.164062 182.613281 156.164062 184.601562 L 156.164062 195.125 C 156.164062 197.109375 157.777344 198.722656 159.765625 198.722656 C 161.753906 198.722656 163.367188 197.109375 163.367188 195.125 L 163.367188 184.601562 C 163.367188 182.613281 161.753906 181.003906 159.765625 181.003906 " fill-opacity="1" fill-rule="nonzero"/><path fill="rgb(100%, 100%, 100%)" d="M 159.765625 117.859375 C 157.777344 117.859375 156.164062 119.46875 156.164062 121.453125 L 156.164062 131.980469 C 156.164062 133.964844 157.777344 135.578125 159.765625 135.578125 C 161.753906 135.578125 163.367188 133.964844 163.367188 131.980469 L 163.367188 121.453125 C 163.367188 119.46875 161.753906 117.859375 159.765625 117.859375 " fill-opacity="1" fill-rule="nonzero"/><path fill="rgb(100%, 100%, 100%)" d="M 159.765625 159.953125 C 157.777344 159.953125 156.164062 161.566406 156.164062 163.550781 L 156.164062 174.078125 C 156.164062 176.0625 157.777344 177.675781 159.765625 177.675781 C 161.753906 177.675781 163.367188 176.0625 163.367188 174.078125 L 163.367188 163.550781 C 163.367188 161.566406 161.753906 159.953125 159.765625 159.953125 " fill-opacity="1" fill-rule="nonzero"/><path fill="rgb(100%, 100%, 100%)" d="M 264.050781 181.925781 L 191.78125 181.925781 L 191.78125 134.652344 L 264.050781 134.652344 Z M 267.65625 127.457031 L 188.179688 127.457031 C 186.1875 127.457031 184.574219 129.066406 184.574219 131.054688 L 184.574219 185.527344 C 184.574219 187.511719 186.1875 189.125 188.179688 189.125 L 267.65625 189.125 C 269.644531 189.125 271.257812 187.511719 271.257812 185.527344 L 271.257812 131.054688 C 271.257812 129.066406 269.644531 127.457031 267.65625 127.457031 " fill-opacity="1" fill-rule="nonzero"/></svg>